<svg width="96" height="112" viewBox="0 0 96 112" fill="none" xmlns="http://www.w3.org/2000/svg">
<path d="M0 8C0 3.58172 3.58172 0 8 0H88C92.4183 0 96 3.58172 96 8V104C96 108.418 92.4183 112 88 112H8C3.58172 112 0 108.418 0 104V8Z" fill="#27272A"/>
<path d="M37.9167 26C38.9167 25 38.1667 22 36.4787 22C34.7907 22 34.9167 24 35.9167 24C36.9167 24 36.9167 26 36.9167 27C36.9167 28 37.9167 26 37.9167 26ZM33.7337 27.72C34.7337 26.72 33.9837 23.72 32.2957 23.72C30.6077 23.72 30.7337 25.72 31.7337 25.72C32.7337 25.72 32.7337 27.72 32.7337 28.72C32.7337 29.72 33.7337 27.72 33.7337 27.72Z" fill="#AA8DD8"/>
<path d="M60.1087 54.856C60.2977 55.664 61.3357 57.136 62.1407 56.947C62.9467 56.757 63.2177 54.976 63.0287 54.17C62.8397 53.362 62.0307 52.863 61.2247 53.053C60.4197 53.243 59.9187 54.05 60.1087 54.856ZM54.6747 55.505C54.6777 56.335 55.3557 58.003 56.1837 58C57.0117 57.996 57.6777 56.323 57.6747 55.494C57.6717 54.665 56.9977 53.997 56.1697 53.999C55.3417 54.003 54.6717 54.676 54.6747 55.505ZM49.4037 53.059C49.0777 53.823 49.0387 55.622 49.7997 55.949C50.5627 56.273 51.8367 55.002 52.1627 54.239C52.4877 53.477 52.1347 52.596 51.3737 52.269C50.6117 51.944 49.7307 52.296 49.4037 53.059ZM44.3727 42.019C43.5607 42.191 42.0647 43.192 42.2337 44.002C42.4067 44.812 44.1787 45.126 44.9907 44.955C45.8017 44.784 46.3197 43.988 46.1507 43.178C45.9787 42.368 45.1857 41.848 44.3727 42.019ZM42.3357 37.019C41.5237 37.191 40.0277 38.192 40.1967 39.002C40.3697 39.812 42.1417 40.126 42.9537 39.955C43.7647 39.784 44.2827 38.988 44.1137 38.178C43.9417 37.368 43.1477 36.848 42.3357 37.019Z" fill="#744EAA"/>
<path d="M57.7457 56C60.5767 56 62.6717 55.123 63.0117 54.973C65.2827 53.963 66.3047 51.304 65.2957 49.034C64.2967 46.784 61.6797 45.759 59.4237 46.72C59.2907 46.77 57.6307 47.369 56.0807 46.648C54.2297 45.787 53.0857 43.339 52.4527 41.439C52.3087 41.009 52.0677 40.165 51.7667 39.123C49.9007 32.652 48.9347 30.838 47.7837 29.303C44.0727 24.352 38.1917 24.007 35.3007 24.587C32.8637 25.074 31.2827 27.445 31.7707 29.882C32.2587 32.32 34.6307 33.902 37.0667 33.412C37.2287 33.386 39.2707 33.106 40.4907 34.581C41.1337 35.868 42.5707 39.709 43.1207 41.615C43.4667 42.814 43.7497 43.786 43.9147 44.282C45.6877 49.599 48.5807 53.175 52.5177 54.911C54.3697 55.729 56.1717 56 57.7457 56Z" fill="#9266CC"/>
<path d="M37.1837 28C37.736 28 38.1837 27.5523 38.1837 27C38.1837 26.4477 37.736 26 37.1837 26C36.6314 26 36.1837 26.4477 36.1837 27C36.1837 27.5523 36.6314 28 37.1837 28Z" fill="#202024"/>
<path d="M61.4248 54.964C61.3358 54.964 61.2448 54.952 61.1558 54.928C60.6238 54.78 60.3118 54.229 60.4598 53.697C61.2168 50.975 59.6898 49.155 59.6748 49.137C59.3158 48.718 59.3628 48.086 59.7818 47.727C60.1998 47.368 60.8328 47.415 61.1918 47.834C61.2838 47.941 63.4258 50.494 62.3868 54.231C62.2648 54.674 61.8618 54.964 61.4248 54.964ZM54.2258 54.401C53.9808 54.401 53.7358 54.312 53.5418 54.131C53.1388 53.753 53.1178 53.12 53.4948 52.717C54.9798 51.13 54.9478 48.524 54.9468 48.497C54.9308 47.945 55.3658 47.485 55.9188 47.469C56.4608 47.464 56.9318 47.888 56.9468 48.441C56.9508 48.58 57.0198 51.878 54.9558 54.085C54.7588 54.295 54.4918 54.401 54.2258 54.401ZM45.6838 45.705C45.2038 45.705 44.7798 45.358 44.6988 44.868C44.6088 44.324 44.9768 43.808 45.5218 43.719C48.5958 43.209 50.2958 41.342 50.3128 41.323C50.6778 40.913 51.3108 40.874 51.7218 41.239C52.1338 41.604 52.1748 42.232 51.8128 42.645C51.7258 42.744 49.6568 45.06 45.8488 45.691C45.7928 45.701 45.7378 45.705 45.6838 45.705ZM48.6048 50.562C48.1798 50.562 47.7858 50.29 47.6508 49.864C47.4848 49.338 47.7768 48.775 48.3028 48.609C50.9958 47.756 52.1828 45.779 52.1948 45.759C52.4748 45.282 53.0868 45.122 53.5628 45.402C54.0398 45.681 54.1988 46.295 53.9198 46.77C53.8568 46.878 52.3248 49.433 48.9068 50.514C48.8058 50.547 48.7038 50.562 48.6048 50.562ZM43.9858 39.892C43.4898 39.892 43.0588 39.523 42.9948 39.017C42.9258 38.469 43.3138 37.969 43.8618 37.899C46.5508 37.559 48.5188 35.928 48.5378 35.911C48.9598 35.557 49.5908 35.608 49.9458 36.03C50.3018 36.451 50.2508 37.08 49.8308 37.437C49.7338 37.52 47.4108 39.466 44.1128 39.883C44.0698 39.889 44.0278 39.892 43.9858 39.892ZM42.1648 35.125C41.7398 35.125 41.3458 34.852 41.2108 34.424C41.0458 33.897 41.3378 33.336 41.8648 33.17C44.9948 32.187 46.1178 30.478 46.1638 30.406C46.4588 29.944 47.0748 29.801 47.5388 30.094C48.0038 30.386 48.1498 30.993 47.8628 31.46C47.8028 31.557 46.3568 33.856 42.4638 35.079C42.3648 35.11 42.2638 35.125 42.1648 35.125Z" fill="#744EAA"/>
<path d="M17.4682 85V74.8182H21.0975C21.8896 74.8182 22.5459 74.9624 23.0662 75.2507C23.5866 75.5391 23.976 75.9335 24.2346 76.4339C24.4931 76.9311 24.6223 77.4912 24.6223 78.1143C24.6223 78.7408 24.4914 79.3042 24.2296 79.8047C23.9711 80.3018 23.58 80.6963 23.0563 80.9879C22.5359 81.2763 21.8813 81.4205 21.0925 81.4205H18.5968V80.1179H20.9533C21.4538 80.1179 21.8598 80.0317 22.1713 79.8594C22.4829 79.6837 22.7116 79.4451 22.8574 79.1435C23.0033 78.8419 23.0762 78.4988 23.0762 78.1143C23.0762 77.7299 23.0033 77.3885 22.8574 77.0902C22.7116 76.7919 22.4812 76.5582 22.1664 76.3892C21.8548 76.2202 21.4438 76.1357 20.9334 76.1357H19.0044V85H17.4682ZM26.304 85V77.3636H27.7408V78.5767H27.8203C27.9595 78.1657 28.2048 77.8426 28.5561 77.6072C28.9107 77.3686 29.3118 77.2493 29.7592 77.2493C29.852 77.2493 29.9614 77.2526 30.0874 77.2592C30.2166 77.2659 30.3177 77.2741 30.3906 77.2841V78.706C30.331 78.6894 30.2249 78.6712 30.0724 78.6513C29.92 78.6281 29.7675 78.6165 29.6151 78.6165C29.2637 78.6165 28.9505 78.6911 28.6754 78.8402C28.4036 78.986 28.1882 79.1899 28.0291 79.4517C27.87 79.7102 27.7905 80.0052 27.7905 80.3366V85H26.304ZM34.6202 85.1541C33.9043 85.1541 33.2795 84.9901 32.7459 84.6619C32.2123 84.3338 31.798 83.8748 31.503 83.2848C31.208 82.6948 31.0605 82.0054 31.0605 81.2166C31.0605 80.4245 31.208 79.7318 31.503 79.1385C31.798 78.5452 32.2123 78.0845 32.7459 77.7564C33.2795 77.4283 33.9043 77.2642 34.6202 77.2642C35.3361 77.2642 35.9609 77.4283 36.4945 77.7564C37.0281 78.0845 37.4424 78.5452 37.7374 79.1385C38.0324 79.7318 38.1799 80.4245 38.1799 81.2166C38.1799 82.0054 38.0324 82.6948 37.7374 83.2848C37.4424 83.8748 37.0281 84.3338 36.4945 84.6619C35.9609 84.9901 35.3361 85.1541 34.6202 85.1541ZM34.6252 83.9062C35.0892 83.9062 35.4737 83.7836 35.7786 83.5384C36.0835 83.2931 36.3089 82.9666 36.4547 82.5589C36.6039 82.1513 36.6784 81.7022 36.6784 81.2116C36.6784 80.7244 36.6039 80.277 36.4547 79.8693C36.3089 79.4583 36.0835 79.1286 35.7786 78.88C35.4737 78.6314 35.0892 78.5071 34.6252 78.5071C34.1578 78.5071 33.7701 78.6314 33.4618 78.88C33.1569 79.1286 32.9299 79.4583 32.7807 79.8693C32.6349 80.277 32.562 80.7244 32.562 81.2116C32.562 81.7022 32.6349 82.1513 32.7807 82.5589C32.9299 82.9666 33.1569 83.2931 33.4618 83.5384C33.7701 83.7836 34.1578 83.9062 34.6252 83.9062ZM39.9585 85V74.8182H41.445V78.6016H41.5344C41.6206 78.4425 41.7449 78.2585 41.9073 78.0497C42.0697 77.8409 42.2951 77.6586 42.5835 77.5028C42.8718 77.3438 43.253 77.2642 43.7269 77.2642C44.3434 77.2642 44.8936 77.42 45.3775 77.7315C45.8614 78.0431 46.2409 78.4922 46.516 79.0788C46.7944 79.6655 46.9336 80.3714 46.9336 81.1967C46.9336 82.022 46.796 82.7296 46.521 83.3196C46.2459 83.9062 45.868 84.3587 45.3874 84.6768C44.9068 84.9917 44.3583 85.1491 43.7418 85.1491C43.2778 85.1491 42.8983 85.0713 42.6033 84.9155C42.3117 84.7597 42.083 84.5774 41.9173 84.3686C41.7515 84.1598 41.6239 83.9742 41.5344 83.8118H41.4102V85H39.9585ZM41.4151 81.1818C41.4151 81.7187 41.493 82.1894 41.6488 82.5938C41.8046 82.9981 42.0299 83.3146 42.3249 83.5433C42.6199 83.7687 42.9812 83.8814 43.4087 83.8814C43.8529 83.8814 44.2241 83.7637 44.5224 83.5284C44.8207 83.2898 45.046 82.9666 45.1985 82.5589C45.3543 82.1513 45.4322 81.6922 45.4322 81.1818C45.4322 80.678 45.3559 80.2256 45.2035 79.8246C45.0543 79.4235 44.829 79.107 44.5273 78.875C44.229 78.643 43.8562 78.527 43.4087 78.527C42.9779 78.527 42.6133 78.638 42.315 78.8601C42.02 79.0821 41.7963 79.392 41.6438 79.7898C41.4914 80.1875 41.4151 80.6515 41.4151 81.1818ZM50.0893 74.8182V85H48.6028V74.8182H50.0893ZM55.3803 85.1541C54.628 85.1541 53.98 84.9934 53.4364 84.6719C52.8962 84.3471 52.4786 83.8913 52.1836 83.3047C51.8919 82.7147 51.7461 82.0237 51.7461 81.2315C51.7461 80.4493 51.8919 79.7599 52.1836 79.1634C52.4786 78.5668 52.8896 78.1011 53.4165 77.7663C53.9469 77.4316 54.5666 77.2642 55.2759 77.2642C55.7068 77.2642 56.1244 77.3355 56.5288 77.478C56.9331 77.6205 57.296 77.8442 57.6175 78.1491C57.939 78.4541 58.1926 78.8501 58.3782 79.3374C58.5638 79.8213 58.6566 80.4096 58.6566 81.1023V81.6293H52.5863V80.5156H57.1999C57.1999 80.1245 57.1204 79.7782 56.9613 79.4766C56.8022 79.1716 56.5785 78.9313 56.2901 78.7557C56.0051 78.58 55.6703 78.4922 55.2859 78.4922C54.8683 78.4922 54.5037 78.5949 54.1921 78.8004C53.8839 79.0026 53.6452 79.2678 53.4762 79.5959C53.3105 79.9207 53.2276 80.2737 53.2276 80.6548V81.5249C53.2276 82.0353 53.3171 82.4695 53.4961 82.8274C53.6784 83.1854 53.9319 83.4588 54.2567 83.6477C54.5816 83.8333 54.9611 83.9261 55.3952 83.9261C55.677 83.9261 55.9338 83.8864 56.1658 83.8068C56.3978 83.724 56.5984 83.6013 56.7674 83.4389C56.9364 83.2765 57.0657 83.076 57.1552 82.8374L58.5621 83.0909C58.4495 83.5052 58.2473 83.8681 57.9556 84.1797C57.6673 84.4879 57.3043 84.7282 56.8668 84.9006C56.4326 85.0696 55.9371 85.1541 55.3803 85.1541ZM60.3059 85V77.3636H61.7328V78.6065H61.8272C61.9863 78.1856 62.2465 77.8575 62.6078 77.6222C62.969 77.3835 63.4016 77.2642 63.9054 77.2642C64.4158 77.2642 64.8433 77.3835 65.188 77.6222C65.536 77.8608 65.7929 78.1889 65.9586 78.6065H66.0382C66.2205 78.1989 66.5105 77.8741 66.9082 77.6321C67.3059 77.3868 67.7799 77.2642 68.3301 77.2642C69.0228 77.2642 69.5879 77.4813 70.0254 77.9155C70.4662 78.3497 70.6866 79.0043 70.6866 79.8793V85H69.2001V80.0185C69.2001 79.5014 69.0592 79.1269 68.7775 78.8949C68.4958 78.6629 68.1594 78.5469 67.7683 78.5469C67.2844 78.5469 66.9082 78.696 66.6397 78.9943C66.3713 79.2893 66.237 79.6688 66.237 80.1328V85H64.7555V79.924C64.7555 79.5097 64.6262 79.1766 64.3677 78.9247C64.1092 78.6728 63.7728 78.5469 63.3585 78.5469C63.0768 78.5469 62.8166 78.6214 62.5779 78.7706C62.3426 78.9164 62.152 79.1203 62.0062 79.3821C61.8637 79.6439 61.7924 79.9472 61.7924 80.2919V85H60.3059ZM74.9013 85.169C74.4174 85.169 73.9799 85.0795 73.5888 84.9006C73.1977 84.7183 72.8878 84.4548 72.6591 84.1101C72.4337 83.7654 72.321 83.3428 72.321 82.8423C72.321 82.4115 72.4039 82.0568 72.5696 81.7784C72.7353 81.5 72.959 81.2796 73.2408 81.1172C73.5225 80.9548 73.8374 80.8321 74.1854 80.7493C74.5334 80.6664 74.888 80.6035 75.2493 80.5604C75.7067 80.5073 76.0779 80.4643 76.3629 80.4311C76.648 80.3946 76.8551 80.3366 76.9844 80.2571C77.1136 80.1776 77.1783 80.0483 77.1783 79.8693V79.8345C77.1783 79.4003 77.0556 79.0639 76.8104 78.8253C76.5684 78.5866 76.2071 78.4673 75.7266 78.4673C75.2261 78.4673 74.8317 78.5784 74.5433 78.8004C74.2583 79.0192 74.0611 79.2628 73.9517 79.5312L72.5547 79.2131C72.7204 78.7491 72.9624 78.3745 73.2805 78.0895C73.602 77.8011 73.9716 77.5923 74.3892 77.4631C74.8068 77.3305 75.246 77.2642 75.7067 77.2642C76.0116 77.2642 76.3348 77.3007 76.6761 77.3736C77.0208 77.4432 77.3423 77.5724 77.6406 77.7614C77.9422 77.9503 78.1892 78.2204 78.3814 78.5717C78.5736 78.9197 78.6697 79.3722 78.6697 79.929V85H77.218V83.956H77.1584C77.0623 84.1482 76.9181 84.3371 76.7259 84.5227C76.5336 84.7083 76.2867 84.8625 75.9851 84.9851C75.6835 85.1077 75.3222 85.169 74.9013 85.169ZM75.2244 83.9759C75.6354 83.9759 75.9867 83.8946 76.2784 83.7322C76.5734 83.5698 76.7971 83.3577 76.9496 83.0959C77.1054 82.8307 77.1832 82.5473 77.1832 82.2457V81.2614C77.1302 81.3144 77.0275 81.3641 76.875 81.4105C76.7259 81.4536 76.5552 81.4917 76.3629 81.5249C76.1707 81.5547 75.9834 81.5829 75.8011 81.6094C75.6188 81.6326 75.4664 81.6525 75.3438 81.669C75.0554 81.7055 74.7919 81.7668 74.5533 81.853C74.3179 81.9392 74.129 82.0634 73.9865 82.2259C73.8473 82.3849 73.7777 82.5971 73.7777 82.8622C73.7777 83.2301 73.9136 83.5085 74.1854 83.6974C74.4571 83.883 74.8035 83.9759 75.2244 83.9759Z" fill="#F4F4F5"/>
</svg>
