<svg width="96" height="112" viewBox="0 0 96 112" fill="none" xmlns="http://www.w3.org/2000/svg">
<path d="M0 8C0 3.58172 3.58172 0 8 0H88C92.4183 0 96 3.58172 96 8V104C96 108.418 92.4183 112 88 112H8C3.58172 112 0 108.418 0 104V8Z" fill="#27272A"/>
<path d="M59 33.92C59 40.359 54 41.359 54 47.36C54 50.458 50.877 50.719 48.5 50.719C46.447 50.719 41.914 49.94 41.914 47.358C41.914 41.36 37 40.36 37 33.92C37 27.889 42.285 23 48.083 23C53.883 23 59 27.889 59 33.92Z" fill="#FFD983"/>
<path d="M52.167 55.36C52.167 56.188 49.933 57.86 48 57.86C46.067 57.86 43.833 56.188 43.833 55.36C43.833 54.532 46.066 54.86 48 54.86C49.933 54.86 52.167 54.532 52.167 55.36Z" fill="#CCD6DD"/>
<path d="M52.707 33.153C52.316 32.762 51.684 32.762 51.293 33.153L48 36.446L44.707 33.153C44.316 32.762 43.684 32.762 43.293 33.153C42.902 33.544 42.902 34.176 43.293 34.567L47 38.274V48.86C47 49.413 47.448 49.86 48 49.86C48.552 49.86 49 49.413 49 48.86V38.274L52.707 34.567C53.098 34.176 53.098 33.544 52.707 33.153Z" fill="#FFCC4D"/>
<path d="M54 53.86C54 54.964 53.104 55.86 52 55.86H44C42.896 55.86 42 54.964 42 53.86V47.86H54V53.86Z" fill="#99AAB5"/>
<path d="M41.999 54.86C41.519 54.86 41.095 54.513 41.014 54.024C40.923 53.48 41.291 52.964 41.836 52.874L53.836 50.874C54.38 50.776 54.896 51.151 54.986 51.696C55.077 52.24 54.709 52.756 54.164 52.846L42.164 54.846C42.109 54.856 42.053 54.86 41.999 54.86ZM41.999 50.86C41.519 50.86 41.095 50.513 41.014 50.024C40.923 49.48 41.291 48.964 41.836 48.874L53.836 46.874C54.38 46.777 54.896 47.151 54.986 47.696C55.077 48.24 54.709 48.756 54.164 48.846L42.164 50.846C42.109 50.856 42.053 50.86 41.999 50.86Z" fill="#CCD6DD"/>
<path d="M34.5494 74.8182V85H33.0131V74.8182H34.5494ZM39.5259 85.1491C38.9094 85.1491 38.3593 84.9917 37.8754 84.6768C37.3948 84.3587 37.0169 83.9062 36.7418 83.3196C36.4701 82.7296 36.3342 82.022 36.3342 81.1967C36.3342 80.3714 36.4717 79.6655 36.7468 79.0788C37.0252 78.4922 37.4064 78.0431 37.8903 77.7315C38.3742 77.42 38.9227 77.2642 39.5359 77.2642C40.0098 77.2642 40.391 77.3438 40.6793 77.5028C40.971 77.6586 41.1964 77.8409 41.3555 78.0497C41.5179 78.2585 41.6438 78.4425 41.7333 78.6016H41.8228V74.8182H43.3093V85H41.8576V83.8118H41.7333C41.6438 83.9742 41.5146 84.1598 41.3455 84.3686C41.1798 84.5774 40.9511 84.7597 40.6594 84.9155C40.3678 85.0713 39.9899 85.1491 39.5259 85.1491ZM39.854 83.8814C40.2816 83.8814 40.6429 83.7687 40.9379 83.5433C41.2362 83.3146 41.4615 82.9981 41.614 82.5938C41.7698 82.1894 41.8477 81.7187 41.8477 81.1818C41.8477 80.6515 41.7714 80.1875 41.619 79.7898C41.4665 79.392 41.2428 79.0821 40.9478 78.8601C40.6528 78.638 40.2882 78.527 39.854 78.527C39.4066 78.527 39.0337 78.643 38.7354 78.875C38.4371 79.107 38.2118 79.4235 38.0593 79.8246C37.9102 80.2256 37.8356 80.678 37.8356 81.1818C37.8356 81.6922 37.9118 82.1513 38.0643 82.5589C38.2167 82.9666 38.4421 83.2898 38.7404 83.5284C39.042 83.7637 39.4132 83.8814 39.854 83.8814ZM48.7221 85.1541C47.9698 85.1541 47.3218 84.9934 46.7782 84.6719C46.238 84.3471 45.8204 83.8913 45.5254 83.3047C45.2337 82.7147 45.0879 82.0237 45.0879 81.2315C45.0879 80.4493 45.2337 79.7599 45.5254 79.1634C45.8204 78.5668 46.2314 78.1011 46.7583 77.7663C47.2886 77.4316 47.9084 77.2642 48.6177 77.2642C49.0486 77.2642 49.4662 77.3355 49.8706 77.478C50.2749 77.6205 50.6378 77.8442 50.9593 78.1491C51.2808 78.4541 51.5344 78.8501 51.72 79.3374C51.9056 79.8213 51.9984 80.4096 51.9984 81.1023V81.6293H45.9281V80.5156H50.5417C50.5417 80.1245 50.4622 79.7782 50.3031 79.4766C50.144 79.1716 49.9203 78.9313 49.6319 78.7557C49.3469 78.58 49.0121 78.4922 48.6277 78.4922C48.21 78.4922 47.8455 78.5949 47.5339 78.8004C47.2257 79.0026 46.987 79.2678 46.818 79.5959C46.6523 79.9207 46.5694 80.2737 46.5694 80.6548V81.5249C46.5694 82.0353 46.6589 82.4695 46.8379 82.8274C47.0202 83.1854 47.2737 83.4588 47.5985 83.6477C47.9234 83.8333 48.3029 83.9261 48.737 83.9261C49.0188 83.9261 49.2756 83.8864 49.5076 83.8068C49.7396 83.724 49.9402 83.6013 50.1092 83.4389C50.2782 83.2765 50.4075 83.076 50.497 82.8374L51.9039 83.0909C51.7913 83.5052 51.5891 83.8681 51.2974 84.1797C51.0091 84.4879 50.6461 84.7282 50.2086 84.9006C49.7744 85.0696 49.2789 85.1541 48.7221 85.1541ZM53.6477 85V77.3636H55.1342V85H53.6477ZM54.3984 76.1854C54.1399 76.1854 53.9179 76.0992 53.7322 75.9268C53.55 75.7512 53.4588 75.5424 53.4588 75.3004C53.4588 75.0552 53.55 74.8464 53.7322 74.674C53.9179 74.4983 54.1399 74.4105 54.3984 74.4105C54.657 74.4105 54.8774 74.4983 55.0597 74.674C55.2453 74.8464 55.3381 75.0552 55.3381 75.3004C55.3381 75.5424 55.2453 75.7512 55.0597 75.9268C54.8774 76.0992 54.657 76.1854 54.3984 76.1854ZM59.3564 85.169C58.8725 85.169 58.435 85.0795 58.0439 84.9006C57.6528 84.7183 57.3429 84.4548 57.1142 84.1101C56.8888 83.7654 56.7761 83.3428 56.7761 82.8423C56.7761 82.4115 56.859 82.0568 57.0247 81.7784C57.1904 81.5 57.4141 81.2796 57.6958 81.1172C57.9776 80.9548 58.2924 80.8321 58.6404 80.7493C58.9885 80.6664 59.3431 80.6035 59.7044 80.5604C60.1618 80.5073 60.533 80.4643 60.818 80.4311C61.103 80.3946 61.3102 80.3366 61.4395 80.2571C61.5687 80.1776 61.6333 80.0483 61.6333 79.8693V79.8345C61.6333 79.4003 61.5107 79.0639 61.2654 78.8253C61.0235 78.5866 60.6622 78.4673 60.1816 78.4673C59.6812 78.4673 59.2868 78.5784 58.9984 78.8004C58.7134 79.0192 58.5162 79.2628 58.4068 79.5312L57.0098 79.2131C57.1755 78.7491 57.4174 78.3745 57.7356 78.0895C58.0571 77.8011 58.4267 77.5923 58.8443 77.4631C59.2619 77.3305 59.7011 77.2642 60.1618 77.2642C60.4667 77.2642 60.7898 77.3007 61.1312 77.3736C61.4759 77.4432 61.7974 77.5724 62.0957 77.7614C62.3973 77.9503 62.6442 78.2204 62.8365 78.5717C63.0287 78.9197 63.1248 79.3722 63.1248 79.929V85H61.6731V83.956H61.6135C61.5173 84.1482 61.3732 84.3371 61.1809 84.5227C60.9887 84.7083 60.7418 84.8625 60.4402 84.9851C60.1386 85.1077 59.7773 85.169 59.3564 85.169ZM59.6795 83.9759C60.0905 83.9759 60.4418 83.8946 60.7335 83.7322C61.0285 83.5698 61.2522 83.3577 61.4047 83.0959C61.5604 82.8307 61.6383 82.5473 61.6383 82.2457V81.2614C61.5853 81.3144 61.4825 81.3641 61.3301 81.4105C61.1809 81.4536 61.0102 81.4917 60.818 81.5249C60.6258 81.5547 60.4385 81.5829 60.2562 81.6094C60.0739 81.6326 59.9215 81.6525 59.7988 81.669C59.5105 81.7055 59.247 81.7668 59.0083 81.853C58.773 81.9392 58.5841 82.0634 58.4416 82.2259C58.3024 82.3849 58.2328 82.5971 58.2328 82.8622C58.2328 83.2301 58.3687 83.5085 58.6404 83.6974C58.9122 83.883 59.2586 83.9759 59.6795 83.9759Z" fill="#F4F4F5"/>
</svg>
