<svg width="96" height="112" viewBox="0 0 96 112" fill="none" xmlns="http://www.w3.org/2000/svg">
<path d="M0 8C0 3.58172 3.58172 0 8 0H88C92.4183 0 96 3.58172 96 8V104C96 108.418 92.4183 112 88 112H8C3.58172 112 0 108.418 0 104V8Z" fill="#27272A"/>
<path d="M66 34.875C66 31.009 62.866 27.875 59 27.875C57.833 27.875 56.735 28.165 55.768 28.669C53.686 25.842 50.343 24 46.563 24C41.431 24 37.088 27.38 35.64 32.036C32.982 32.653 31 35.03 31 37.875C31 40.854 33.174 43.32 36.021 43.788C36.237 47.737 39.498 50.875 43.5 50.875C45.676 50.875 47.63 49.942 49 48.462C50.37 49.942 52.323 50.875 54.5 50.875C58.643 50.875 62 47.518 62 43.375C62 42.665 61.895 41.981 61.711 41.33C64.23 40.271 66 37.78 66 34.875Z" fill="#85C8F8"/>
<path d="M35 56.875C36.6569 56.875 38 55.5319 38 53.875C38 52.2181 36.6569 50.875 35 50.875C33.3431 50.875 32 52.2181 32 53.875C32 55.5319 33.3431 56.875 35 56.875Z" fill="#85C8F8"/>
<path d="M39.048 79.9091C39.048 80.9962 38.8492 81.9309 38.4514 82.7131C38.0537 83.492 37.5085 84.0919 36.8158 84.5128C36.1264 84.9304 35.3425 85.1392 34.4642 85.1392C33.5826 85.1392 32.7954 84.9304 32.1027 84.5128C31.4133 84.0919 30.8698 83.4903 30.472 82.7081C30.0743 81.9259 29.8754 80.9929 29.8754 79.9091C29.8754 78.822 30.0743 77.889 30.472 77.1101C30.8698 76.3279 31.4133 75.728 32.1027 75.3104C32.7954 74.8894 33.5826 74.679 34.4642 74.679C35.3425 74.679 36.1264 74.8894 36.8158 75.3104C37.5085 75.728 38.0537 76.3279 38.4514 77.1101C38.8492 77.889 39.048 78.822 39.048 79.9091ZM37.5267 79.9091C37.5267 79.0805 37.3925 78.3828 37.124 77.8161C36.8589 77.246 36.4943 76.8151 36.0303 76.5234C35.5696 76.2285 35.0476 76.081 34.4642 76.081C33.8776 76.081 33.3539 76.2285 32.8932 76.5234C32.4325 76.8151 32.0679 77.246 31.7994 77.8161C31.5343 78.3828 31.4017 79.0805 31.4017 79.9091C31.4017 80.7377 31.5343 81.437 31.7994 82.0071C32.0679 82.5739 32.4325 83.0047 32.8932 83.2997C33.3539 83.5914 33.8776 83.7372 34.4642 83.7372C35.0476 83.7372 35.5696 83.5914 36.0303 83.2997C36.4943 83.0047 36.8589 82.5739 37.124 82.0071C37.3925 81.437 37.5267 80.7377 37.5267 79.9091ZM45.6814 81.8331V77.3636H47.1729V85H45.7112V83.6776H45.6317C45.456 84.0852 45.1743 84.425 44.7865 84.6967C44.402 84.9652 43.9231 85.0994 43.3497 85.0994C42.8592 85.0994 42.425 84.9917 42.0471 84.7763C41.6726 84.5575 41.3776 84.2344 41.1622 83.8068C40.9501 83.3793 40.844 82.8506 40.844 82.2209V77.3636H42.3305V82.0419C42.3305 82.5623 42.4747 82.9766 42.7631 83.2848C43.0514 83.593 43.4259 83.7472 43.8866 83.7472C44.165 83.7472 44.4418 83.6776 44.7169 83.5384C44.9953 83.3991 45.2256 83.1887 45.4079 82.907C45.5935 82.6252 45.6847 82.2673 45.6814 81.8331ZM52.7348 77.3636V78.5568H48.5637V77.3636H52.7348ZM49.6823 75.5341H51.1688V82.7578C51.1688 83.0462 51.2119 83.2633 51.298 83.4091C51.3842 83.5516 51.4952 83.6494 51.6311 83.7024C51.7703 83.7521 51.9211 83.777 52.0835 83.777C52.2029 83.777 52.3073 83.7687 52.3968 83.7521C52.4862 83.7356 52.5558 83.7223 52.6056 83.7124L52.874 84.9403C52.7878 84.9735 52.6652 85.0066 52.5061 85.0398C52.347 85.0762 52.1482 85.0961 51.9095 85.0994C51.5184 85.1061 51.1539 85.0365 50.8158 84.8906C50.4777 84.7448 50.2043 84.5194 49.9955 84.2145C49.7867 83.9096 49.6823 83.5268 49.6823 83.0661V75.5341ZM54.3792 85V77.3636H55.816V78.5767H55.8955C56.0347 78.1657 56.28 77.8426 56.6313 77.6072C56.9859 77.3686 57.387 77.2493 57.8344 77.2493C57.9272 77.2493 58.0366 77.2526 58.1626 77.2592C58.2918 77.2659 58.3929 77.2741 58.4658 77.2841V78.706C58.4062 78.6894 58.3001 78.6712 58.1476 78.6513C57.9952 78.6281 57.8427 78.6165 57.6903 78.6165C57.3389 78.6165 57.0257 78.6911 56.7506 78.8402C56.4788 78.986 56.2634 79.1899 56.1043 79.4517C55.9452 79.7102 55.8657 80.0052 55.8657 80.3366V85H54.3792ZM62.6954 85.1541C61.9795 85.1541 61.3547 84.9901 60.8211 84.6619C60.2875 84.3338 59.8732 83.8748 59.5782 83.2848C59.2832 82.6948 59.1357 82.0054 59.1357 81.2166C59.1357 80.4245 59.2832 79.7318 59.5782 79.1385C59.8732 78.5452 60.2875 78.0845 60.8211 77.7564C61.3547 77.4283 61.9795 77.2642 62.6954 77.2642C63.4113 77.2642 64.0361 77.4283 64.5697 77.7564C65.1033 78.0845 65.5176 78.5452 65.8126 79.1385C66.1076 79.7318 66.2551 80.4245 66.2551 81.2166C66.2551 82.0054 66.1076 82.6948 65.8126 83.2848C65.5176 83.8748 65.1033 84.3338 64.5697 84.6619C64.0361 84.9901 63.4113 85.1541 62.6954 85.1541ZM62.7004 83.9062C63.1644 83.9062 63.5489 83.7836 63.8538 83.5384C64.1587 83.2931 64.3841 82.9666 64.5299 82.5589C64.6791 82.1513 64.7536 81.7022 64.7536 81.2116C64.7536 80.7244 64.6791 80.277 64.5299 79.8693C64.3841 79.4583 64.1587 79.1286 63.8538 78.88C63.5489 78.6314 63.1644 78.5071 62.7004 78.5071C62.233 78.5071 61.8453 78.6314 61.537 78.88C61.2321 79.1286 61.0051 79.4583 60.8559 79.8693C60.7101 80.277 60.6372 80.7244 60.6372 81.2116C60.6372 81.7022 60.7101 82.1513 60.8559 82.5589C61.0051 82.9666 61.2321 83.2931 61.537 83.5384C61.8453 83.7836 62.233 83.9062 62.7004 83.9062Z" fill="#F4F4F5"/>
</svg>
